<svg xmlns="http://www.w3.org/2000/svg" width="500" height="400" viewBox="0 0 500 400">
  <!-- Definitions -->
  <defs>
    <linearGradient id="heatmapGrad" x1="0%" y1="0%" x2="100%" y2="100%">
      <stop offset="0%" style="stop-color:#00c8ff;stop-opacity:1" />
      <stop offset="100%" style="stop-color:#9d4edd;stop-opacity:1" />
    </linearGradient>
    <filter id="heatmapShadow" x="-20%" y="-20%" width="140%" height="140%">
      <feGaussianBlur in="SourceAlpha" stdDeviation="3" />
      <feOffset dx="0" dy="3" result="offsetblur" />
      <feComponentTransfer>
        <feFuncA type="linear" slope="0.3" />
      </feComponentTransfer>
      <feMerge>
        <feMergeNode />
        <feMergeNode in="SourceGraphic" />
      </feMerge>
    </filter>
    <linearGradient id="heatScale" x1="0%" y1="0%" x2="100%" y2="0%">
      <stop offset="0%" style="stop-color:#9d4edd;stop-opacity:1" />
      <stop offset="50%" style="stop-color:#ffffff;stop-opacity:1" />
      <stop offset="100%" style="stop-color:#00c8ff;stop-opacity:1" />
    </linearGradient>
  </defs>

  <!-- Background -->
  <rect x="0" y="0" width="500" height="400" rx="10" ry="10" fill="#1a2035" />

  <!-- Header -->
  <rect x="0" y="0" width="500" height="40" rx="10" ry="10" fill="#0a0e17" />
  <text x="20" y="25" font-family="Arial" font-size="14" fill="#ffffff">Feature Correlation Heatmap</text>
  
  <!-- Controls -->
  <rect x="300" y="10" width="180" height="20" rx="10" ry="10" fill="#141a29" stroke="#2a3146" stroke-width="1" />
  <text x="320" y="25" font-family="Arial" font-size="10" fill="#6c7a94">Correlation Method: Pearson</text>
  <path d="M460,20 L465,15 L465,25 Z" fill="#6c7a94" />

  <!-- Main Heatmap Container -->
  <rect x="50" y="60" width="340" height="280" rx="5" ry="5" fill="#0a0e17" filter="url(#heatmapShadow)" />
  
  <!-- Feature Labels (Y-axis) -->
  <text x="40" y="90" font-family="Arial" font-size="10" fill="#ffffff" text-anchor="end">Feature 1</text>
  <text x="40" y="130" font-family="Arial" font-size="10" fill="#ffffff" text-anchor="end">Feature 2</text>
  <text x="40" y="170" font-family="Arial" font-size="10" fill="#ffffff" text-anchor="end">Feature 3</text>
  <text x="40" y="210" font-family="Arial" font-size="10" fill="#ffffff" text-anchor="end">Feature 4</text>
  <text x="40" y="250" font-family="Arial" font-size="10" fill="#ffffff" text-anchor="end">Feature 5</text>
  <text x="40" y="290" font-family="Arial" font-size="10" fill="#ffffff" text-anchor="end">Feature 6</text>
  <text x="40" y="330" font-family="Arial" font-size="10" fill="#ffffff" text-anchor="end">Target</text>
  
  <!-- Feature Labels (X-axis) -->
  <text x="90" y="50" font-family="Arial" font-size="10" fill="#ffffff" text-anchor="middle">Feature 1</text>
  <text x="130" y="50" font-family="Arial" font-size="10" fill="#ffffff" text-anchor="middle">Feature 2</text>
  <text x="170" y="50" font-family="Arial" font-size="10" fill="#ffffff" text-anchor="middle">Feature 3</text>
  <text x="210" y="50" font-family="Arial" font-size="10" fill="#ffffff" text-anchor="middle">Feature 4</text>
  <text x="250" y="50" font-family="Arial" font-size="10" fill="#ffffff" text-anchor="middle">Feature 5</text>
  <text x="290" y="50" font-family="Arial" font-size="10" fill="#ffffff" text-anchor="middle">Feature 6</text>
  <text x="330" y="50" font-family="Arial" font-size="10" fill="#ffffff" text-anchor="middle">Target</text>
  
  <!-- Heatmap Cells -->
  <!-- Row 1 -->
  <rect x="70" y="70" width="40" height="40" fill="#00c8ff" opacity="1.0" />
  <rect x="110" y="70" width="40" height="40" fill="#00c8ff" opacity="0.7" />
  <rect x="150" y="70" width="40" height="40" fill="#00c8ff" opacity="0.3" />
  <rect x="190" y="70" width="40" height="40" fill="#ffffff" opacity="0.2" />
  <rect x="230" y="70" width="40" height="40" fill="#9d4edd" opacity="0.4" />
  <rect x="270" y="70" width="40" height="40" fill="#9d4edd" opacity="0.6" />
  <rect x="310" y="70" width="40" height="40" fill="#00c8ff" opacity="0.8" />
  
  <!-- Row 2 -->
  <rect x="70" y="110" width="40" height="40" fill="#00c8ff" opacity="0.7" />
  <rect x="110" y="110" width="40" height="40" fill="#00c8ff" opacity="1.0" />
  <rect x="150" y="110" width="40" height="40" fill="#00c8ff" opacity="0.5" />
  <rect x="190" y="110" width="40" height="40" fill="#ffffff" opacity="0.1" />
  <rect x="230" y="110" width="40" height="40" fill="#9d4edd" opacity="0.3" />
  <rect x="270" y="110" width="40" height="40" fill="#9d4edd" opacity="0.5" />
  <rect x="310" y="110" width="40" height="40" fill="#00c8ff" opacity="0.6" />
  
  <!-- Row 3 -->
  <rect x="70" y="150" width="40" height="40" fill="#00c8ff" opacity="0.3" />
  <rect x="110" y="150" width="40" height="40" fill="#00c8ff" opacity="0.5" />
  <rect x="150" y="150" width="40" height="40" fill="#00c8ff" opacity="1.0" />
  <rect x="190" y="150" width="40" height="40" fill="#00c8ff" opacity="0.4" />
  <rect x="230" y="150" width="40" height="40" fill="#ffffff" opacity="0.2" />
  <rect x="270" y="150" width="40" height="40" fill="#9d4edd" opacity="0.3" />
  <rect x="310" y="150" width="40" height="40" fill="#00c8ff" opacity="0.4" />
  
  <!-- Row 4 -->
  <rect x="70" y="190" width="40" height="40" fill="#ffffff" opacity="0.2" />
  <rect x="110" y="190" width="40" height="40" fill="#ffffff" opacity="0.1" />
  <rect x="150" y="190" width="40" height="40" fill="#00c8ff" opacity="0.4" />
  <rect x="190" y="190" width="40" height="40" fill="#00c8ff" opacity="1.0" />
  <rect x="230" y="190" width="40" height="40" fill="#00c8ff" opacity="0.6" />
  <rect x="270" y="190" width="40" height="40" fill="#ffffff" opacity="0.1" />
  <rect x="310" y="190" width="40" height="40" fill="#9d4edd" opacity="0.3" />
  
  <!-- Row 5 -->
  <rect x="70" y="230" width="40" height="40" fill="#9d4edd" opacity="0.4" />
  <rect x="110" y="230" width="40" height="40" fill="#9d4edd" opacity="0.3" />
  <rect x="150" y="230" width="40" height="40" fill="#ffffff" opacity="0.2" />
  <rect x="190" y="230" width="40" height="40" fill="#00c8ff" opacity="0.6" />
  <rect x="230" y="230" width="40" height="40" fill="#00c8ff" opacity="1.0" />
  <rect x="270" y="230" width="40" height="40" fill="#00c8ff" opacity="0.5" />
  <rect x="310" y="230" width="40" height="40" fill="#9d4edd" opacity="0.7" />
  
  <!-- Row 6 -->
  <rect x="70" y="270" width="40" height="40" fill="#9d4edd" opacity="0.6" />
  <rect x="110" y="270" width="40" height="40" fill="#9d4edd" opacity="0.5" />
  <rect x="150" y="270" width="40" height="40" fill="#9d4edd" opacity="0.3" />
  <rect x="190" y="270" width="40" height="40" fill="#ffffff" opacity="0.1" />
  <rect x="230" y="270" width="40" height="40" fill="#00c8ff" opacity="0.5" />
  <rect x="270" y="270" width="40" height="40" fill="#00c8ff" opacity="1.0" />
  <rect x="310" y="270" width="40" height="40" fill="#9d4edd" opacity="0.8" />
  
  <!-- Row 7 (Target) -->
  <rect x="70" y="310" width="40" height="40" fill="#00c8ff" opacity="0.8" />
  <rect x="110" y="310" width="40" height="40" fill="#00c8ff" opacity="0.6" />
  <rect x="150" y="310" width="40" height="40" fill="#00c8ff" opacity="0.4" />
  <rect x="190" y="310" width="40" height="40" fill="#9d4edd" opacity="0.3" />
  <rect x="230" y="310" width="40" height="40" fill="#9d4edd" opacity="0.7" />
  <rect x="270" y="310" width="40" height="40" fill="#9d4edd" opacity="0.8" />
  <rect x="310" y="310" width="40" height="40" fill="#00c8ff" opacity="1.0" />
  
  <!-- Correlation Values -->
  <!-- Just showing a few key values for clarity -->
  <text x="90" y="90" font-family="Arial" font-size="10" fill="#ffffff" text-anchor="middle">1.0</text>
  <text x="130" y="130" font-family="Arial" font-size="10" fill="#ffffff" text-anchor="middle">1.0</text>
  <text x="170" y="170" font-family="Arial" font-size="10" fill="#ffffff" text-anchor="middle">1.0</text>
  <text x="210" y="210" font-family="Arial" font-size="10" fill="#ffffff" text-anchor="middle">1.0</text>
  <text x="250" y="250" font-family="Arial" font-size="10" fill="#ffffff" text-anchor="middle">1.0</text>
  <text x="290" y="290" font-family="Arial" font-size="10" fill="#ffffff" text-anchor="middle">1.0</text>
  <text x="330" y="330" font-family="Arial" font-size="10" fill="#ffffff" text-anchor="middle">1.0</text>
  
  <!-- Hover Effect on Cell -->
  <rect x="310" y="70" width="40" height="40" fill="url(#heatmapGrad)" opacity="0.2">
    <animate attributeName="opacity" values="0.2;0.4;0.2" dur="2s" repeatCount="indefinite" />
  </rect>
  
  <!-- Tooltip for Hovered Cell -->
  <g transform="translate(350, 90)">
    <rect x="0" y="-30" width="120" height="60" rx="5" ry="5" fill="#141a29" opacity="0.9" />
    <text x="10" y="-10" font-family="Arial" font-size="10" fill="#ffffff">Feature 1 - Target</text>
    <text x="10" y="10" font-family="Arial" font-size="12" fill="#00c8ff">Correlation: 0.82</text>
    <text x="10" y="25" font-family="Arial" font-size="8" fill="#a0a9c0">p-value: 0.0001</text>
  </g>
  
  <!-- Color Scale -->
  <rect x="50" y="360" width="340" height="20" fill="url(#heatScale)" rx="5" ry="5" />
  <text x="50" y="395" font-family="Arial" font-size="10" fill="#ffffff">-1.0</text>
  <text x="220" y="395" font-family="Arial" font-size="10" fill="#ffffff" text-anchor="middle">0.0</text>
  <text x="390" y="395" font-family="Arial" font-size="10" fill="#ffffff" text-anchor="end">+1.0</text>
</svg>