<svg xmlns="http://www.w3.org/2000/svg" width="600" height="400" viewBox="0 0 600 400">
  <!-- Definitions -->
  <defs>
    <!-- Gradients -->
    <linearGradient id="bgGradient" x1="0%" y1="0%" x2="100%" y2="100%">
      <stop offset="0%" style="stop-color:#1a1a2e;stop-opacity:1" />
      <stop offset="100%" style="stop-color:#16213e;stop-opacity:1" />
    </linearGradient>
    
    <linearGradient id="accentGradient" x1="0%" y1="0%" x2="100%" y2="100%">
      <stop offset="0%" style="stop-color:#00c8ff;stop-opacity:1" />
      <stop offset="100%" style="stop-color:#9d4edd;stop-opacity:1" />
    </linearGradient>
    
    <linearGradient id="cardGradient" x1="0%" y1="0%" x2="100%" y2="100%">
      <stop offset="0%" style="stop-color:#1a1a2e;stop-opacity:0.8" />
      <stop offset="100%" style="stop-color:#16213e;stop-opacity:0.9" />
    </linearGradient>
    
    <!-- Filters -->
    <filter id="glow" x="-20%" y="-20%" width="140%" height="140%">
      <feGaussianBlur stdDeviation="5" result="blur" />
      <feComposite in="SourceGraphic" in2="blur" operator="over" />
    </filter>
    
    <filter id="shadow" x="-10%" y="-10%" width="120%" height="130%">
      <feDropShadow dx="0" dy="4" stdDeviation="4" flood-color="#000" flood-opacity="0.3" />
    </filter>
    
    <!-- Patterns -->
    <pattern id="grid" width="40" height="40" patternUnits="userSpaceOnUse">
      <rect width="40" height="40" fill="none" />
      <path d="M 40 0 L 0 0 0 40" fill="none" stroke="#ffffff" stroke-width="0.5" stroke-opacity="0.05" />
    </pattern>
  </defs>
  
  <!-- Background -->
  <rect width="600" height="400" fill="url(#bgGradient)" />
  <rect width="600" height="400" fill="url(#grid)" />
  
  <!-- Decorative Elements -->
  <circle cx="100" cy="300" r="80" fill="url(#accentGradient)" opacity="0.1" />
  <circle cx="500" cy="100" r="60" fill="url(#accentGradient)" opacity="0.1" />
  
  <!-- Main Content: Rocket Launch Metaphor -->
  <!-- Launch Platform -->
  <rect x="200" y="300" width="200" height="10" rx="2" ry="2" fill="#2a2a4a" />
  <rect x="240" y="310" width="120" height="20" rx="2" ry="2" fill="#1e1e3a" />
  
  <!-- Rocket -->
  <g transform="translate(300, 200)" filter="url(#shadow)">
    <!-- Rocket Body -->
    <rect x="-15" y="0" width="30" height="80" rx="15" ry="15" fill="#ffffff" />
    
    <!-- Rocket Window -->
    <circle cx="0" cy="30" r="8" fill="url(#accentGradient)" />
    
    <!-- Rocket Top -->
    <path d="M -15 0 L 0 -20 L 15 0 Z" fill="url(#accentGradient)" />
    
    <!-- Rocket Fins -->
    <path d="M -15 60 L -30 90 L -15 80 Z" fill="url(#accentGradient)" />
    <path d="M 15 60 L 30 90 L 15 80 Z" fill="url(#accentGradient)" />
    
    <!-- Rocket Flame -->
    <g filter="url(#glow)">
      <path d="M -10 80 L 0 120 L 10 80 Z" fill="#ff6b6b">
        <animate attributeName="d" values="M -10 80 L 0 110 L 10 80 Z; M -10 80 L 0 130 L 10 80 Z; M -10 80 L 0 110 L 10 80 Z" dur="0.5s" repeatCount="indefinite" />
      </path>
      <path d="M -5 80 L 0 100 L 5 80 Z" fill="#ffb347">
        <animate attributeName="d" values="M -5 80 L 0 100 L 5 80 Z; M -5 80 L 0 120 L 5 80 Z; M -5 80 L 0 100 L 5 80 Z" dur="0.7s" repeatCount="indefinite" />
      </path>
    </g>
  </g>
  
  <!-- Dashboard Cards -->
  <!-- Card 1: Model Performance -->
  <g transform="translate(120, 150)">
    <rect x="-70" y="-50" width="140" height="100" rx="10" ry="10" fill="url(#cardGradient)" stroke="#ffffff" stroke-width="1" stroke-opacity="0.2" filter="url(#shadow)" />
    
    <!-- Card Header -->
    <text x="-60" y="-30" font-family="Arial" font-size="12" fill="#ffffff">Model Performance</text>
    
    <!-- Performance Chart -->
    <line x1="-50" y1="0" x2="50" y2="0" stroke="#ffffff" stroke-width="0.5" stroke-opacity="0.3" />
    <line x1="-50" y1="-20" x2="-50" y2="20" stroke="#ffffff" stroke-width="0.5" stroke-opacity="0.3" />
    
    <!-- Chart Line -->
    <path d="M -50 10 L -30 5 L -10 15 L 10 -10 L 30 -5 L 50 -15" fill="none" stroke="url(#accentGradient)" stroke-width="2" />
    
    <!-- Data Points -->
    <circle cx="-50" cy="10" r="3" fill="url(#accentGradient)" />
    <circle cx="-30" cy="5" r="3" fill="url(#accentGradient)" />
    <circle cx="-10" cy="15" r="3" fill="url(#accentGradient)" />
    <circle cx="10" cy="-10" r="3" fill="url(#accentGradient)" />
    <circle cx="30" cy="-5" r="3" fill="url(#accentGradient)" />
    <circle cx="50" cy="-15" r="3" fill="url(#accentGradient)" />
  </g>
  
  <!-- Card 2: Deployment Ready -->
  <g transform="translate(450, 180)">
    <rect x="-70" y="-50" width="140" height="100" rx="10" ry="10" fill="url(#cardGradient)" stroke="#ffffff" stroke-width="1" stroke-opacity="0.2" filter="url(#shadow)" />
    
    <!-- Card Header -->
    <text x="-60" y="-30" font-family="Arial" font-size="12" fill="#ffffff">Deployment Ready</text>
    
    <!-- Deployment Icons -->
    <g transform="translate(-40, 0)">
      <rect x="-15" y="-15" width="30" height="30" rx="5" ry="5" fill="#2a2a4a" />
      <text x="0" y="5" font-family="Arial" font-size="18" fill="#00c8ff" text-anchor="middle">API</text>
    </g>
    
    <g transform="translate(0, 0)">
      <rect x="-15" y="-15" width="30" height="30" rx="5" ry="5" fill="#2a2a4a" />
      <text x="0" y="5" font-family="Arial" font-size="18" fill="#00c8ff" text-anchor="middle">↓</text>
    </g>
    
    <g transform="translate(40, 0)">
      <rect x="-15" y="-15" width="30" height="30" rx="5" ry="5" fill="#2a2a4a" />
      <text x="0" y="5" font-family="Arial" font-size="18" fill="#00c8ff" text-anchor="middle">⚙️</text>
    </g>
  </g>
  
  <!-- Card 3: Start Building -->
  <g transform="translate(300, 100)">
    <rect x="-100" y="-40" width="200" height="80" rx="10" ry="10" fill="url(#accentGradient)" filter="url(#shadow)" opacity="0.9" />
    
    <text x="0" y="0" font-family="Arial" font-size="20" font-weight="bold" fill="#ffffff" text-anchor="middle">Start Building Now</text>
    <text x="0" y="25" font-family="Arial" font-size="12" fill="#ffffff" text-anchor="middle">No coding required</text>
    
    <!-- Pulsing Animation -->
    <rect x="-100" y="-40" width="200" height="80" rx="10" ry="10" fill="url(#accentGradient)" opacity="0.3">
      <animate attributeName="opacity" values="0.3;0.5;0.3" dur="2s" repeatCount="indefinite" />
    </rect>
  </g>
  
  <!-- Floating Elements -->
  <g transform="translate(150, 80)">
    <rect x="-20" y="-20" width="40" height="40" rx="5" ry="5" fill="url(#cardGradient)" stroke="#ffffff" stroke-width="1" stroke-opacity="0.2" filter="url(#shadow)">
      <animateTransform attributeName="transform" type="translate" values="0,0; 0,-10; 0,0" dur="3s" repeatCount="indefinite" />
    </rect>
    <text x="0" y="5" font-family="Arial" font-size="20" fill="url(#accentGradient)" text-anchor="middle">ML</text>
  </g>
  
  <g transform="translate(450, 80)">
    <rect x="-20" y="-20" width="40" height="40" rx="5" ry="5" fill="url(#cardGradient)" stroke="#ffffff" stroke-width="1" stroke-opacity="0.2" filter="url(#shadow)">
      <animateTransform attributeName="transform" type="translate" values="0,0; 0,-5; 0,0" dur="2s" repeatCount="indefinite" />
    </rect>
    <text x="0" y="5" font-family="Arial" font-size="20" fill="url(#accentGradient)" text-anchor="middle">AI</text>
  </g>
  
  <!-- Particles -->
  <g>
    <circle cx="100" cy="100" r="2" fill="#ffffff" opacity="0.5">
      <animate attributeName="cy" values="100;50;100" dur="3s" repeatCount="indefinite" />
    </circle>
    <circle cx="200" cy="150" r="1" fill="#ffffff" opacity="0.5">
      <animate attributeName="cy" values="150;120;150" dur="2s" repeatCount="indefinite" />
    </circle>
    <circle cx="400" cy="200" r="1.5" fill="#ffffff" opacity="0.5">
      <animate attributeName="cy" values="200;170;200" dur="4s" repeatCount="indefinite" />
    </circle>
    <circle cx="500" cy="250" r="1" fill="#ffffff" opacity="0.5">
      <animate attributeName="cy" values="250;220;250" dur="3.5s" repeatCount="indefinite" />
    </circle>
    <circle cx="300" cy="300" r="2" fill="#ffffff" opacity="0.5">
      <animate attributeName="cy" values="300;270;300" dur="2.5s" repeatCount="indefinite" />
    </circle>
  </g>
</svg>