<svg xmlns="http://www.w3.org/2000/svg" width="400" height="300" viewBox="0 0 400 300">
  <!-- Definitions -->
  <defs>
    <linearGradient id="deployGrad" x1="0%" y1="0%" x2="100%" y2="100%">
      <stop offset="0%" style="stop-color:#00c8ff;stop-opacity:1" />
      <stop offset="100%" style="stop-color:#9d4edd;stop-opacity:1" />
    </linearGradient>
    <linearGradient id="bgGrad" x1="0%" y1="0%" x2="100%" y2="100%">
      <stop offset="0%" style="stop-color:#00c8ff;stop-opacity:0.1" />
      <stop offset="100%" style="stop-color:#9d4edd;stop-opacity:0.1" />
    </linearGradient>
    <filter id="deployShadow" x="-20%" y="-20%" width="140%" height="140%">
      <feGaussianBlur in="SourceAlpha" stdDeviation="5" />
      <feOffset dx="0" dy="5" result="offsetblur" />
      <feComponentTransfer>
        <feFuncA type="linear" slope="0.3" />
      </feComponentTransfer>
      <feMerge>
        <feMergeNode />
        <feMergeNode in="SourceGraphic" />
      </feMerge>
    </filter>
  </defs>

  <!-- Background -->
  <rect x="10" y="10" width="380" height="280" rx="15" ry="15" fill="url(#bgGrad)" />

  <!-- Dashboard Panel -->
  <rect x="30" y="30" width="340" height="240" rx="10" ry="10" fill="#141a29" filter="url(#deployShadow)" />

  <!-- Header -->
  <rect x="30" y="30" width="340" height="40" rx="10" ry="10" fill="#0a0e17" />
  <text x="60" y="55" font-family="Arial" font-size="14" fill="#ffffff">Model Evaluation &amp; Deployment</text>
  
  <!-- Control Icons -->
  <circle cx="340" cy="50" r="8" fill="#00c8ff" />
  <circle cx="320" cy="50" r="8" fill="#9d4edd" />
  <circle cx="300" cy="50" r="8" fill="#ffffff" opacity="0.5" />

  <!-- Evaluation Metrics Area -->
  <rect x="40" y="80" width="150" height="180" rx="5" ry="5" fill="#1a2035" />
  <text x="115" y="100" font-family="Arial" font-size="12" fill="#ffffff" text-anchor="middle">Performance Metrics</text>
  
  <!-- Metrics Gauges -->
  <g transform="translate(115, 140)">
    <!-- Accuracy Gauge -->
    <circle cx="0" cy="0" r="30" fill="none" stroke="#1a2035" stroke-width="8" />
    <path d="M 0,0 m -30,0 a 30,30 0 1,1 60,0 a 30,30 0 1,1 -60,0" fill="none" stroke="url(#deployGrad)" stroke-width="8" stroke-dasharray="169 188" stroke-dashoffset="0" transform="rotate(-90)" />
    <text x="0" y="5" font-family="Arial" font-size="12" fill="#ffffff" text-anchor="middle">90%</text>
    <text x="0" y="-35" font-family="Arial" font-size="10" fill="#a0a9c0" text-anchor="middle">Accuracy</text>
  </g>
  
  <!-- Other Metrics -->
  <g transform="translate(50, 200)">
    <text x="0" y="0" font-family="Arial" font-size="10" fill="#a0a9c0">Precision:</text>
    <text x="130" y="0" font-family="Arial" font-size="10" fill="#00c8ff" text-anchor="end">0.88</text>
    
    <text x="0" y="20" font-family="Arial" font-size="10" fill="#a0a9c0">Recall:</text>
    <text x="130" y="20" font-family="Arial" font-size="10" fill="#00c8ff" text-anchor="end">0.92</text>
    
    <text x="0" y="40" font-family="Arial" font-size="10" fill="#a0a9c0">F1 Score:</text>
    <text x="130" y="40" font-family="Arial" font-size="10" fill="#00c8ff" text-anchor="end">0.90</text>
  </g>

  <!-- Deployment Area -->
  <rect x="200" y="80" width="160" height="180" rx="5" ry="5" fill="#1a2035" />
  <text x="280" y="100" font-family="Arial" font-size="12" fill="#ffffff" text-anchor="middle">Deployment Options</text>
  
  <!-- Deployment Options -->
  <g transform="translate(210, 120)">
    <!-- API Endpoint -->
    <rect x="0" y="0" width="140" height="40" rx="5" ry="5" fill="#0a0e17" stroke="url(#deployGrad)" stroke-width="2" />
    <text x="70" y="20" font-family="Arial" font-size="10" fill="#ffffff" text-anchor="middle">REST API Endpoint</text>
    <text x="70" y="35" font-family="Arial" font-size="8" fill="#a0a9c0" text-anchor="middle">Real-time predictions</text>
    
    <!-- Download Model -->
    <rect x="0" y="50" width="140" height="40" rx="5" ry="5" fill="#0a0e17" />
    <text x="70" y="70" font-family="Arial" font-size="10" fill="#ffffff" text-anchor="middle">Download Model</text>
    <text x="70" y="85" font-family="Arial" font-size="8" fill="#a0a9c0" text-anchor="middle">ONNX, Pickle formats</text>
    
    <!-- Batch Predictions -->
    <rect x="0" y="100" width="140" height="40" rx="5" ry="5" fill="#0a0e17" />
    <text x="70" y="120" font-family="Arial" font-size="10" fill="#ffffff" text-anchor="middle">Batch Predictions</text>
    <text x="70" y="135" font-family="Arial" font-size="8" fill="#a0a9c0" text-anchor="middle">Upload new data for predictions</text>
  </g>
  
  <!-- Deploy Button -->
  <rect x="235" y="235" width="100" height="25" rx="12.5" ry="12.5" fill="url(#deployGrad)" />
  <text x="285" y="252" font-family="Arial" font-size="12" fill="#ffffff" text-anchor="middle">Deploy Model</text>

  <!-- Cloud Deployment Animation -->
  <g transform="translate(280, 50)">
    <!-- Cloud Shape -->
    <path d="M-25,20 C-25,10 -15,0 0,0 C15,0 25,10 25,20 C35,20 45,30 45,40 C45,50 35,60 25,60 L-25,60 C-35,60 -45,50 -45,40 C-45,30 -35,20 -25,20 Z" fill="none" stroke="url(#deployGrad)" stroke-width="1" opacity="0.3" />
    
    <!-- Upload Animation -->
    <g>
      <line x1="0" y1="80" x2="0" y2="40" stroke="url(#deployGrad)" stroke-width="1" stroke-dasharray="5,3">
        <animate attributeName="stroke-dashoffset" from="8" to="0" dur="1.5s" repeatCount="indefinite" />
      </line>
      <polygon points="-5,45 0,40 5,45" fill="url(#deployGrad)">
        <animate attributeName="opacity" values="1;0.5;1" dur="1.5s" repeatCount="indefinite" />
      </polygon>
    </g>
  </g>

  <!-- Confusion Matrix -->
  <g transform="translate(115, 140)">
    <!-- Matrix Background -->
    <rect x="-80" y="-80" width="60" height="60" fill="#0a0e17" opacity="0" />
    
    <!-- Matrix Cells -->
    <g opacity="0">
      <!-- True Positive -->
      <rect x="-80" y="-80" width="30" height="30" fill="#00c8ff" opacity="0.7" />
      <!-- False Negative -->
      <rect x="-50" y="-80" width="30" height="30" fill="#9d4edd" opacity="0.3" />
      <!-- False Positive -->
      <rect x="-80" y="-50" width="30" height="30" fill="#9d4edd" opacity="0.3" />
      <!-- True Negative -->
      <rect x="-50" y="-50" width="30" height="30" fill="#00c8ff" opacity="0.7" />
    </g>
  </g>

  <!-- Decorative Elements -->
  <circle cx="30" cy="150" r="3" fill="#00c8ff" opacity="0.5" />
  <circle cx="370" cy="150" r="3" fill="#9d4edd" opacity="0.5" />
  <circle cx="200" cy="30" r="3" fill="#00c8ff" opacity="0.5" />
  <circle cx="200" cy="270" r="3" fill="#9d4edd" opacity="0.5" />
  
  <!-- Animated Data Points -->
  <g>
    <circle cx="200" cy="150" r="2" fill="#00c8ff">
      <animate attributeName="cx" from="200" to="280" dur="2s" repeatCount="indefinite" />
      <animate attributeName="cy" from="150" to="50" dur="2s" repeatCount="indefinite" />
      <animate attributeName="opacity" from="1" to="0" dur="2s" repeatCount="indefinite" />
    </circle>
    <circle cx="200" cy="150" r="2" fill="#9d4edd">
      <animate attributeName="cx" from="200" to="280" dur="2.5s" repeatCount="indefinite" />
      <animate attributeName="cy" from="150" to="50" dur="2.5s" repeatCount="indefinite" />
      <animate attributeName="opacity" from="1" to="0" dur="2.5s" repeatCount="indefinite" />
    </circle>
    <circle cx="200" cy="150" r="2" fill="#00c8ff">
      <animate attributeName="cx" from="200" to="280" dur="3s" repeatCount="indefinite" />
      <animate attributeName="cy" from="150" to="50" dur="3s" repeatCount="indefinite" />
      <animate attributeName="opacity" from="1" to="0" dur="3s" repeatCount="indefinite" />
    </circle>
  </g>
</svg>