<svg xmlns="http://www.w3.org/2000/svg" width="400" height="300" viewBox="0 0 400 300">
  <!-- Definitions -->
  <defs>
    <linearGradient id="exploreGrad" x1="0%" y1="0%" x2="100%" y2="100%">
      <stop offset="0%" style="stop-color:#00c8ff;stop-opacity:1" />
      <stop offset="100%" style="stop-color:#9d4edd;stop-opacity:1" />
    </linearGradient>
    <linearGradient id="bgGrad" x1="0%" y1="0%" x2="100%" y2="100%">
      <stop offset="0%" style="stop-color:#00c8ff;stop-opacity:0.1" />
      <stop offset="100%" style="stop-color:#9d4edd;stop-opacity:0.1" />
    </linearGradient>
    <filter id="exploreShadow" x="-20%" y="-20%" width="140%" height="140%">
      <feGaussianBlur in="SourceAlpha" stdDeviation="5" />
      <feOffset dx="0" dy="5" result="offsetblur" />
      <feComponentTransfer>
        <feFuncA type="linear" slope="0.3" />
      </feComponentTransfer>
      <feMerge>
        <feMergeNode />
        <feMergeNode in="SourceGraphic" />
      </feMerge>
    </filter>
  </defs>

  <!-- Background -->
  <rect x="10" y="10" width="380" height="280" rx="15" ry="15" fill="url(#bgGrad)" />

  <!-- Dashboard Panel -->
  <rect x="30" y="30" width="340" height="240" rx="10" ry="10" fill="#141a29" filter="url(#exploreShadow)" />

  <!-- Header -->
  <rect x="30" y="30" width="340" height="40" rx="10" ry="10" fill="#0a0e17" />
  <text x="60" y="55" font-family="Arial" font-size="14" fill="#ffffff">Data Explorer</text>
  
  <!-- Control Icons -->
  <circle cx="340" cy="50" r="8" fill="#00c8ff" />
  <circle cx="320" cy="50" r="8" fill="#9d4edd" />
  <circle cx="300" cy="50" r="8" fill="#ffffff" opacity="0.5" />

  <!-- Data Visualization Area -->
  <rect x="40" y="80" width="160" height="180" rx="5" ry="5" fill="#1a2035" />
  
  <!-- Heatmap Visualization -->
  <text x="120" y="100" font-family="Arial" font-size="12" fill="#ffffff" text-anchor="middle">Correlation Heatmap</text>
  
  <!-- Heatmap Grid -->
  <g transform="translate(60, 110)">
    <!-- Row 1 -->
    <rect x="0" y="0" width="30" height="30" fill="#00c8ff" opacity="0.9" />
    <rect x="30" y="0" width="30" height="30" fill="#00c8ff" opacity="0.5" />
    <rect x="60" y="0" width="30" height="30" fill="#00c8ff" opacity="0.2" />
    <rect x="90" y="0" width="30" height="30" fill="#9d4edd" opacity="0.3" />
    
    <!-- Row 2 -->
    <rect x="0" y="30" width="30" height="30" fill="#00c8ff" opacity="0.5" />
    <rect x="30" y="30" width="30" height="30" fill="#00c8ff" opacity="0.9" />
    <rect x="60" y="30" width="30" height="30" fill="#00c8ff" opacity="0.4" />
    <rect x="90" y="30" width="30" height="30" fill="#9d4edd" opacity="0.2" />
    
    <!-- Row 3 -->
    <rect x="0" y="60" width="30" height="30" fill="#00c8ff" opacity="0.2" />
    <rect x="30" y="60" width="30" height="30" fill="#00c8ff" opacity="0.4" />
    <rect x="60" y="60" width="30" height="30" fill="#00c8ff" opacity="0.9" />
    <rect x="90" y="60" width="30" height="30" fill="#9d4edd" opacity="0.7" />
    
    <!-- Row 4 -->
    <rect x="0" y="90" width="30" height="30" fill="#9d4edd" opacity="0.3" />
    <rect x="30" y="90" width="30" height="30" fill="#9d4edd" opacity="0.2" />
    <rect x="60" y="90" width="30" height="30" fill="#9d4edd" opacity="0.7" />
    <rect x="90" y="90" width="30" height="30" fill="#9d4edd" opacity="0.9" />
    
    <!-- Animated Highlight -->
    <rect x="60" y="90" width="30" height="30" fill="none" stroke="#ffffff" stroke-width="2">
      <animate attributeName="stroke-opacity" values="1;0.3;1" dur="2s" repeatCount="indefinite" />
    </rect>
  </g>

  <!-- Feature Selection Panel -->
  <rect x="210" y="80" width="150" height="180" rx="5" ry="5" fill="#1a2035" />
  <text x="285" y="100" font-family="Arial" font-size="12" fill="#ffffff" text-anchor="middle">Feature Selection</text>
  
  <!-- Feature Checkboxes -->
  <g transform="translate(220, 120)">
    <!-- Feature 1 -->
    <rect x="0" y="0" width="16" height="16" rx="3" ry="3" fill="#00c8ff" />
    <text x="25" y="12" font-family="Arial" font-size="10" fill="#ffffff">Feature 1</text>
    <polyline points="4,8 7,12 12,4" stroke="#ffffff" stroke-width="2" fill="none" />
    
    <!-- Feature 2 -->
    <rect x="0" y="25" width="16" height="16" rx="3" ry="3" fill="#00c8ff" />
    <text x="25" y="37" font-family="Arial" font-size="10" fill="#ffffff">Feature 2</text>
    <polyline points="4,33 7,37 12,29" stroke="#ffffff" stroke-width="2" fill="none" />
    
    <!-- Feature 3 -->
    <rect x="0" y="50" width="16" height="16" rx="3" ry="3" fill="#00c8ff" />
    <text x="25" y="62" font-family="Arial" font-size="10" fill="#ffffff">Feature 3</text>
    <polyline points="4,58 7,62 12,54" stroke="#ffffff" stroke-width="2" fill="none" />
    
    <!-- Feature 4 -->
    <rect x="0" y="75" width="16" height="16" rx="3" ry="3" stroke="#6c7a94" stroke-width="1" fill="none" />
    <text x="25" y="87" font-family="Arial" font-size="10" fill="#6c7a94">Feature 4</text>
    
    <!-- Feature 5 -->
    <rect x="0" y="100" width="16" height="16" rx="3" ry="3" fill="#00c8ff" />
    <text x="25" y="112" font-family="Arial" font-size="10" fill="#ffffff">Feature 5</text>
    <polyline points="4,108 7,112 12,104" stroke="#ffffff" stroke-width="2" fill="none" />
    
    <!-- Animated Selection -->
    <rect x="0" y="75" width="16" height="16" rx="3" ry="3" stroke="#00c8ff" stroke-width="2" fill="none">
      <animate attributeName="stroke-opacity" values="1;0.3;1" dur="1.5s" repeatCount="indefinite" />
    </rect>
  </g>
  
  <!-- Apply Button -->
  <rect x="235" y="235" width="100" height="25" rx="12.5" ry="12.5" fill="url(#exploreGrad)" />
  <text x="285" y="252" font-family="Arial" font-size="12" fill="#ffffff" text-anchor="middle">Apply Changes</text>

  <!-- Decorative Elements -->
  <circle cx="30" cy="150" r="3" fill="#00c8ff" opacity="0.5" />
  <circle cx="370" cy="150" r="3" fill="#9d4edd" opacity="0.5" />
  <circle cx="200" cy="30" r="3" fill="#00c8ff" opacity="0.5" />
  <circle cx="200" cy="270" r="3" fill="#9d4edd" opacity="0.5" />
</svg>