<svg xmlns="http://www.w3.org/2000/svg" width="600" height="400" viewBox="0 0 600 400">
  <!-- Definitions -->
  <defs>
    <linearGradient id="hyperGrad" x1="0%" y1="0%" x2="100%" y2="100%">
      <stop offset="0%" style="stop-color:#00c8ff;stop-opacity:1" />
      <stop offset="100%" style="stop-color:#9d4edd;stop-opacity:1" />
    </linearGradient>
    <linearGradient id="sliderGrad" x1="0%" y1="0%" x2="100%" y2="0%">
      <stop offset="0%" style="stop-color:#00c8ff;stop-opacity:1" />
      <stop offset="100%" style="stop-color:#9d4edd;stop-opacity:1" />
    </linearGradient>
    <filter id="hyperShadow" x="-20%" y="-20%" width="140%" height="140%">
      <feGaussianBlur in="SourceAlpha" stdDeviation="3" />
      <feOffset dx="0" dy="3" result="offsetblur" />
      <feComponentTransfer>
        <feFuncA type="linear" slope="0.3" />
      </feComponentTransfer>
      <feMerge>
        <feMergeNode />
        <feMergeNode in="SourceGraphic" />
      </feMerge>
    </filter>
  </defs>

  <!-- Background -->
  <rect x="0" y="0" width="600" height="400" rx="10" ry="10" fill="#1a2035" />

  <!-- Header -->
  <rect x="0" y="0" width="600" height="50" rx="10" ry="10" fill="#0a0e17" />
  <text x="20" y="30" font-family="Arial" font-size="16" fill="#ffffff">Hyperparameter Tuning</text>
  
  <!-- Model Info -->
  <text x="300" y="30" font-family="Arial" font-size="14" fill="#ffffff" text-anchor="middle">Random Forest Classifier</text>
  
  <!-- Main Layout -->
  <!-- Left Panel: Parameters -->
  <rect x="20" y="60" width="350" height="320" rx="5" ry="5" fill="#0a0e17" filter="url(#hyperShadow)" />
  <text x="40" y="85" font-family="Arial" font-size="14" fill="#ffffff">Model Parameters</text>
  
  <!-- Parameter Controls -->
  <rect x="40" y="100" width="310" height="260" rx="5" ry="5" fill="#141a29" />
  
  <!-- n_estimators -->
  <text x="60" y="125" font-family="Arial" font-size="12" fill="#ffffff">Number of Trees (n_estimators)</text>
  <rect x="60" y="135" width="250" height="4" rx="2" ry="2" fill="#2a3146" />
  <rect x="60" y="135" width="150" height="4" rx="2" ry="2" fill="url(#sliderGrad)" />
  <circle cx="210" cy="137" r="8" fill="url(#sliderGrad)" />
  <text x="60" y="155" font-family="Arial" font-size="10" fill="#a0a9c0">10</text>
  <text x="310" y="155" font-family="Arial" font-size="10" fill="#a0a9c0" text-anchor="end">500</text>
  <text x="210" y="155" font-family="Arial" font-size="10" fill="#ffffff" text-anchor="middle">100</text>
  
  <!-- max_depth -->
  <text x="60" y="180" font-family="Arial" font-size="12" fill="#ffffff">Maximum Depth (max_depth)</text>
  <rect x="60" y="190" width="250" height="4" rx="2" ry="2" fill="#2a3146" />
  <rect x="60" y="190" width="125" height="4" rx="2" ry="2" fill="url(#sliderGrad)" />
  <circle cx="185" cy="192" r="8" fill="url(#sliderGrad)" />
  <text x="60" y="210" font-family="Arial" font-size="10" fill="#a0a9c0">1</text>
  <text x="310" y="210" font-family="Arial" font-size="10" fill="#a0a9c0" text-anchor="end">30</text>
  <text x="185" y="210" font-family="Arial" font-size="10" fill="#ffffff" text-anchor="middle">15</text>
  
  <!-- min_samples_split -->
  <text x="60" y="235" font-family="Arial" font-size="12" fill="#ffffff">Min Samples Split (min_samples_split)</text>
  <rect x="60" y="245" width="250" height="4" rx="2" ry="2" fill="#2a3146" />
  <rect x="60" y="245" width="50" height="4" rx="2" ry="2" fill="url(#sliderGrad)" />
  <circle cx="110" cy="247" r="8" fill="url(#sliderGrad)" />
  <text x="60" y="265" font-family="Arial" font-size="10" fill="#a0a9c0">2</text>
  <text x="310" y="265" font-family="Arial" font-size="10" fill="#a0a9c0" text-anchor="end">20</text>
  <text x="110" y="265" font-family="Arial" font-size="10" fill="#ffffff" text-anchor="middle">5</text>
  
  <!-- criterion -->
  <text x="60" y="290" font-family="Arial" font-size="12" fill="#ffffff">Split Criterion (criterion)</text>
  <rect x="60" y="300" width="120" height="30" rx="5" ry="5" fill="#0a0e17" stroke="url(#hyperGrad)" stroke-width="1" />
  <text x="120" y="320" font-family="Arial" font-size="12" fill="#00c8ff" text-anchor="middle">Gini</text>
  <rect x="190" y="300" width="120" height="30" rx="5" ry="5" fill="#0a0e17" />
  <text x="250" y="320" font-family="Arial" font-size="12" fill="#a0a9c0" text-anchor="middle">Entropy</text>
  
  <!-- Right Panel: Performance Preview -->
  <rect x="390" y="60" width="190" height="320" rx="5" ry="5" fill="#0a0e17" filter="url(#hyperShadow)" />
  <text x="410" y="85" font-family="Arial" font-size="14" fill="#ffffff">Performance Preview</text>
  
  <!-- Performance Metrics -->
  <rect x="410" y="100" width="150" height="150" rx="5" ry="5" fill="#141a29" />
  
  <!-- Accuracy Gauge -->
  <circle cx="485" cy="150" r="40" fill="none" stroke="#2a3146" stroke-width="8" />
  <path d="M485,150 L485,110 A40,40 0 0,1 520,150 Z" fill="url(#hyperGrad)" opacity="0.8" />
  <circle cx="485" cy="150" r="35" fill="#141a29" />
  <text x="485" y="145" font-family="Arial" font-size="12" fill="#ffffff" text-anchor="middle">Accuracy</text>
  <text x="485" y="165" font-family="Arial" font-size="16" fill="#00c8ff" text-anchor="middle">94.2%</text>
  
  <!-- Other Metrics -->
  <text x="410" y="270" font-family="Arial" font-size="12" fill="#a0a9c0">Precision:</text>
  <text x="560" y="270" font-family="Arial" font-size="12" fill="#ffffff" text-anchor="end">92.8%</text>
  
  <text x="410" y="290" font-family="Arial" font-size="12" fill="#a0a9c0">Recall:</text>
  <text x="560" y="290" font-family="Arial" font-size="12" fill="#ffffff" text-anchor="end">95.1%</text>
  
  <text x="410" y="310" font-family="Arial" font-size="12" fill="#a0a9c0">F1 Score:</text>
  <text x="560" y="310" font-family="Arial" font-size="12" fill="#ffffff" text-anchor="end">93.9%</text>
  
  <text x="410" y="330" font-family="Arial" font-size="12" fill="#a0a9c0">Training Time:</text>
  <text x="560" y="330" font-family="Arial" font-size="12" fill="#ffffff" text-anchor="end">3.2s</text>
  
  <!-- Apply Button -->
  <rect x="410" y="340" width="150" height="30" rx="15" ry="15" fill="url(#hyperGrad)" />
  <text x="485" y="360" font-family="Arial" font-size="12" fill="#ffffff" text-anchor="middle">Apply &amp; Train</text>

  
  <!-- Hover Effect on n_estimators Slider -->
  <circle cx="210" cy="137" r="10" fill="url(#hyperGrad)" opacity="0.3">
    <animate attributeName="opacity" values="0.3;0.6;0.3" dur="2s" repeatCount="indefinite" />
    <animate attributeName="r" values="8;10;8" dur="2s" repeatCount="indefinite" />
  </circle>
  
  <!-- Tooltip for n_estimators -->
  <g transform="translate(210, 137)">
    <rect x="20" y="-40" width="180" height="80" rx="5" ry="5" fill="#141a29" opacity="0.9" />
    <text x="30" y="-20" font-family="Arial" font-size="12" fill="#ffffff">Number of Trees</text>
    <text x="30" y="0" font-family="Arial" font-size="10" fill="#a0a9c0">Current: 100 trees</text>
    <text x="30" y="15" font-family="Arial" font-size="10" fill="#a0a9c0">More trees = higher accuracy</text>
    <text x="30" y="30" font-family="Arial" font-size="10" fill="#a0a9c0">but slower training time</text>
    <path d="M0,0 L20,0" stroke="#141a29" stroke-width="10" />
  </g>
</svg>