<svg xmlns="http://www.w3.org/2000/svg" width="600" height="400" viewBox="0 0 600 400">
  <!-- Definitions -->
  <defs>
    <linearGradient id="cardGrad1" x1="0%" y1="0%" x2="100%" y2="100%">
      <stop offset="0%" style="stop-color:#00c8ff;stop-opacity:0.2" />
      <stop offset="100%" style="stop-color:#9d4edd;stop-opacity:0.2" />
    </linearGradient>
    <linearGradient id="cardGrad2" x1="0%" y1="0%" x2="100%" y2="100%">
      <stop offset="0%" style="stop-color:#00c8ff;stop-opacity:0.3" />
      <stop offset="100%" style="stop-color:#9d4edd;stop-opacity:0.3" />
    </linearGradient>
    <linearGradient id="activeGrad" x1="0%" y1="0%" x2="100%" y2="100%">
      <stop offset="0%" style="stop-color:#00c8ff;stop-opacity:1" />
      <stop offset="100%" style="stop-color:#9d4edd;stop-opacity:1" />
    </linearGradient>
    <filter id="cardShadow" x="-20%" y="-20%" width="140%" height="140%">
      <feGaussianBlur in="SourceAlpha" stdDeviation="3" />
      <feOffset dx="0" dy="3" result="offsetblur" />
      <feComponentTransfer>
        <feFuncA type="linear" slope="0.3" />
      </feComponentTransfer>
      <feMerge>
        <feMergeNode />
        <feMergeNode in="SourceGraphic" />
      </feMerge>
    </filter>
  </defs>

  <!-- Background -->
  <rect x="0" y="0" width="600" height="400" rx="10" ry="10" fill="#1a2035" />

  <!-- Header -->
  <rect x="0" y="0" width="600" height="50" rx="10" ry="10" fill="#0a0e17" />
  <text x="20" y="30" font-family="Arial" font-size="16" fill="#ffffff">Model Selection</text>
  
  <!-- Problem Type Selector -->
  <rect x="350" y="15" width="230" height="20" rx="10" ry="10" fill="#141a29" />
  <text x="370" y="30" font-family="Arial" font-size="12" fill="#ffffff">Problem Type:</text>
  <rect x="460" y="15" width="110" height="20" rx="10" ry="10" fill="#0a0e17" stroke="url(#activeGrad)" stroke-width="1" />
  <text x="470" y="30" font-family="Arial" font-size="12" fill="#00c8ff">Classification</text>
  <circle cx="560" cy="25" r="5" fill="#00c8ff" />
  
  <!-- Filter Bar -->
  <rect x="20" y="60" width="560" height="30" rx="5" ry="5" fill="#0a0e17" />
  <text x="30" y="80" font-family="Arial" font-size="12" fill="#ffffff">Filter Models:</text>
  
  <!-- Filter Pills -->
  <rect x="130" y="65" width="80" height="20" rx="10" ry="10" fill="#141a29" stroke="url(#activeGrad)" stroke-width="1" />
  <text x="140" y="80" font-family="Arial" font-size="10" fill="#00c8ff">All Models</text>
  
  <rect x="220" y="65" width="100" height="20" rx="10" ry="10" fill="#141a29" />
  <text x="230" y="80" font-family="Arial" font-size="10" fill="#a0a9c0">Tree-based</text>
  
  <rect x="330" y="65" width="80" height="20" rx="10" ry="10" fill="#141a29" />
  <text x="340" y="80" font-family="Arial" font-size="10" fill="#a0a9c0">Linear</text>
  
  <rect x="420" y="65" width="100" height="20" rx="10" ry="10" fill="#141a29" />
  <text x="430" y="80" font-family="Arial" font-size="10" fill="#a0a9c0">Ensemble</text>
  
  <!-- Search Box -->
  <rect x="530" y="65" width="30" height="20" rx="5" ry="5" fill="#141a29" />
  <circle cx="545" cy="75" r="5" fill="none" stroke="#6c7a94" stroke-width="1" />
  <line x1="548" y1="78" x2="552" y2="82" stroke="#6c7a94" stroke-width="1" />
  
  <!-- Model Cards Grid -->
  <!-- Row 1 -->
  <!-- Card 1: Random Forest (Selected) -->
  <g transform="translate(20, 100)">
    <rect width="130" height="130" rx="5" ry="5" fill="#0a0e17" stroke="url(#activeGrad)" stroke-width="2" filter="url(#cardShadow)" />
    <rect width="130" height="40" rx="5" ry="5" fill="url(#activeGrad)" />
    <text x="10" y="25" font-family="Arial" font-size="12" fill="#ffffff">Random Forest</text>
    <text x="65" y="70" font-family="Arial" font-size="10" fill="#ffffff" text-anchor="middle">Accuracy</text>
    <text x="65" y="90" font-family="Arial" font-size="14" fill="#00c8ff" text-anchor="middle">94.2%</text>
    <text x="65" y="110" font-family="Arial" font-size="10" fill="#a0a9c0" text-anchor="middle">Ensemble</text>
    <circle cx="115" cy="20" r="8" fill="#00c8ff" />
    <text x="115" y="24" font-family="Arial" font-size="12" fill="#ffffff" text-anchor="middle">✓</text>
  </g>
  
  <!-- Card 2: Logistic Regression -->
  <g transform="translate(160, 100)">
    <rect width="130" height="130" rx="5" ry="5" fill="#0a0e17" filter="url(#cardShadow)" />
    <rect width="130" height="40" rx="5" ry="5" fill="#141a29" />
    <text x="10" y="25" font-family="Arial" font-size="12" fill="#ffffff">Logistic Regression</text>
    <text x="65" y="70" font-family="Arial" font-size="10" fill="#ffffff" text-anchor="middle">Accuracy</text>
    <text x="65" y="90" font-family="Arial" font-size="14" fill="#a0a9c0" text-anchor="middle">87.5%</text>
    <text x="65" y="110" font-family="Arial" font-size="10" fill="#a0a9c0" text-anchor="middle">Linear</text>
  </g>
  
  <!-- Card 3: XGBoost -->
  <g transform="translate(300, 100)">
    <rect width="130" height="130" rx="5" ry="5" fill="#0a0e17" filter="url(#cardShadow)" />
    <rect width="130" height="40" rx="5" ry="5" fill="#141a29" />
    <text x="10" y="25" font-family="Arial" font-size="12" fill="#ffffff">XGBoost</text>
    <text x="65" y="70" font-family="Arial" font-size="10" fill="#ffffff" text-anchor="middle">Accuracy</text>
    <text x="65" y="90" font-family="Arial" font-size="14" fill="#a0a9c0" text-anchor="middle">93.8%</text>
    <text x="65" y="110" font-family="Arial" font-size="10" fill="#a0a9c0" text-anchor="middle">Ensemble</text>
  </g>
  
  <!-- Card 4: SVM -->
  <g transform="translate(440, 100)">
    <rect width="130" height="130" rx="5" ry="5" fill="#0a0e17" filter="url(#cardShadow)" />
    <rect width="130" height="40" rx="5" ry="5" fill="#141a29" />
    <text x="10" y="25" font-family="Arial" font-size="12" fill="#ffffff">SVM</text>
    <text x="65" y="70" font-family="Arial" font-size="10" fill="#ffffff" text-anchor="middle">Accuracy</text>
    <text x="65" y="90" font-family="Arial" font-size="14" fill="#a0a9c0" text-anchor="middle">89.1%</text>
    <text x="65" y="110" font-family="Arial" font-size="10" fill="#a0a9c0" text-anchor="middle">Kernel</text>
  </g>
  
  <!-- Row 2 -->
  <!-- Card 5: Decision Tree -->
  <g transform="translate(20, 240)">
    <rect width="130" height="130" rx="5" ry="5" fill="#0a0e17" filter="url(#cardShadow)" />
    <rect width="130" height="40" rx="5" ry="5" fill="#141a29" />
    <text x="10" y="25" font-family="Arial" font-size="12" fill="#ffffff">Decision Tree</text>
    <text x="65" y="70" font-family="Arial" font-size="10" fill="#ffffff" text-anchor="middle">Accuracy</text>
    <text x="65" y="90" font-family="Arial" font-size="14" fill="#a0a9c0" text-anchor="middle">85.3%</text>
    <text x="65" y="110" font-family="Arial" font-size="10" fill="#a0a9c0" text-anchor="middle">Tree-based</text>
  </g>
  
  <!-- Card 6: KNN -->
  <g transform="translate(160, 240)">
    <rect width="130" height="130" rx="5" ry="5" fill="#0a0e17" filter="url(#cardShadow)" />
    <rect width="130" height="40" rx="5" ry="5" fill="#141a29" />
    <text x="10" y="25" font-family="Arial" font-size="12" fill="#ffffff">K-Nearest Neighbors</text>
    <text x="65" y="70" font-family="Arial" font-size="10" fill="#ffffff" text-anchor="middle">Accuracy</text>
    <text x="65" y="90" font-family="Arial" font-size="14" fill="#a0a9c0" text-anchor="middle">86.7%</text>
    <text x="65" y="110" font-family="Arial" font-size="10" fill="#a0a9c0" text-anchor="middle">Instance-based</text>
  </g>
  
  <!-- Card 7: Gradient Boosting -->
  <g transform="translate(300, 240)">
    <rect width="130" height="130" rx="5" ry="5" fill="#0a0e17" filter="url(#cardShadow)" />
    <rect width="130" height="40" rx="5" ry="5" fill="#141a29" />
    <text x="10" y="25" font-family="Arial" font-size="12" fill="#ffffff">Gradient Boosting</text>
    <text x="65" y="70" font-family="Arial" font-size="10" fill="#ffffff" text-anchor="middle">Accuracy</text>
    <text x="65" y="90" font-family="Arial" font-size="14" fill="#a0a9c0" text-anchor="middle">92.4%</text>
    <text x="65" y="110" font-family="Arial" font-size="10" fill="#a0a9c0" text-anchor="middle">Ensemble</text>
  </g>
  
  <!-- Card 8: Naive Bayes -->
  <g transform="translate(440, 240)">
    <rect width="130" height="130" rx="5" ry="5" fill="#0a0e17" filter="url(#cardShadow)" />
    <rect width="130" height="40" rx="5" ry="5" fill="#141a29" />
    <text x="10" y="25" font-family="Arial" font-size="12" fill="#ffffff">Naive Bayes</text>
    <text x="65" y="70" font-family="Arial" font-size="10" fill="#ffffff" text-anchor="middle">Accuracy</text>
    <text x="65" y="90" font-family="Arial" font-size="14" fill="#a0a9c0" text-anchor="middle">83.9%</text>
    <text x="65" y="110" font-family="Arial" font-size="10" fill="#a0a9c0" text-anchor="middle">Probabilistic</text>
  </g>
  
  <!-- Hover Effect on XGBoost Card -->
  <rect x="300" y="100" width="130" height="130" rx="5" ry="5" fill="url(#cardGrad2)" opacity="0.5">
    <animate attributeName="opacity" values="0.5;0.8;0.5" dur="2s" repeatCount="indefinite" />
  </rect>
  
  <!-- Pagination -->
  <g transform="translate(300, 380)">
    <rect x="-50" y="-15" width="100" height="20" rx="10" ry="10" fill="#141a29" />
    <text x="-35" y="0" font-family="Arial" font-size="10" fill="#6c7a94">Page 1 of 2</text>
    <text x="20" y="0" font-family="Arial" font-size="10" fill="#00c8ff">→</text>
    <text x="-45" y="0" font-family="Arial" font-size="10" fill="#6c7a94">←</text>
  </g>
</svg>