<svg xmlns="http://www.w3.org/2000/svg" width="700" height="500" viewBox="0 0 700 500">
  <!-- Definitions -->
  <defs>
    <linearGradient id="progressGrad" x1="0%" y1="0%" x2="100%" y2="0%">
      <stop offset="0%" style="stop-color:#00c8ff;stop-opacity:1" />
      <stop offset="100%" style="stop-color:#9d4edd;stop-opacity:1" />
    </linearGradient>
    <linearGradient id="chartGrad" x1="0%" y1="100%" x2="0%" y2="0%">
      <stop offset="0%" style="stop-color:#00c8ff;stop-opacity:0.1" />
      <stop offset="100%" style="stop-color:#00c8ff;stop-opacity:0.5" />
    </linearGradient>
    <linearGradient id="chartGrad2" x1="0%" y1="100%" x2="0%" y2="0%">
      <stop offset="0%" style="stop-color:#9d4edd;stop-opacity:0.1" />
      <stop offset="100%" style="stop-color:#9d4edd;stop-opacity:0.5" />
    </linearGradient>
    <filter id="dashShadow" x="-20%" y="-20%" width="140%" height="140%">
      <feGaussianBlur in="SourceAlpha" stdDeviation="3" />
      <feOffset dx="0" dy="3" result="offsetblur" />
      <feComponentTransfer>
        <feFuncA type="linear" slope="0.3" />
      </feComponentTransfer>
      <feMerge>
        <feMergeNode />
        <feMergeNode in="SourceGraphic" />
      </feMerge>
    </filter>
  </defs>

  <!-- Background -->
  <rect x="0" y="0" width="700" height="500" rx="10" ry="10" fill="#1a2035" />

  <!-- Header -->
  <rect x="0" y="0" width="700" height="50" rx="10" ry="10" fill="#0a0e17" />
  <text x="20" y="30" font-family="Arial" font-size="16" fill="#ffffff">Model Training Dashboard</text>
  
  <!-- Model Info -->
  <text x="350" y="30" font-family="Arial" font-size="14" fill="#ffffff" text-anchor="middle">Random Forest Classifier</text>
  
  <!-- Status Badge -->
  <rect x="550" y="15" width="130" height="20" rx="10" ry="10" fill="#141a29" />
  <circle cx="565" cy="25" r="5" fill="#00c8ff">
    <animate attributeName="opacity" values="1;0.3;1" dur="1s" repeatCount="indefinite" />
  </circle>
  <text x="580" y="30" font-family="Arial" font-size="12" fill="#00c8ff">Training...</text>
  
  <!-- Main Grid Layout -->
  <!-- Progress Section -->
  <rect x="20" y="60" width="660" height="80" rx="5" ry="5" fill="#0a0e17" filter="url(#dashShadow)" />
  <text x="40" y="85" font-family="Arial" font-size="14" fill="#ffffff">Training Progress</text>
  
  <!-- Progress Bar -->
  <rect x="40" y="100" width="620" height="20" rx="10" ry="10" fill="#141a29" />
  <rect x="40" y="100" width="372" height="20" rx="10" ry="10" fill="url(#progressGrad)">
    <animate attributeName="width" values="0;372" dur="3s" fill="freeze" />
  </rect>
  
  <!-- Progress Text -->
  <text x="350" y="115" font-family="Arial" font-size="12" fill="#ffffff" text-anchor="middle">60% Complete</text>
  
  <!-- ETA -->
  <text x="600" y="85" font-family="Arial" font-size="12" fill="#a0a9c0" text-anchor="end">ETA: 2 min 15 sec</text>
  
  <!-- Metrics Section -->
  <rect x="20" y="150" width="320" height="330" rx="5" ry="5" fill="#0a0e17" filter="url(#dashShadow)" />
  <text x="40" y="175" font-family="Arial" font-size="14" fill="#ffffff">Training Metrics</text>
  
  <!-- Metrics Tabs -->
  <rect x="40" y="190" width="280" height="30" rx="5" ry="5" fill="#141a29" />
  <rect x="40" y="190" width="70" height="30" rx="5" ry="5" fill="#0a0e17" stroke="url(#progressGrad)" stroke-width="1" />
  <text x="75" y="210" font-family="Arial" font-size="12" fill="#00c8ff" text-anchor="middle">Accuracy</text>
  <text x="145" y="210" font-family="Arial" font-size="12" fill="#a0a9c0" text-anchor="middle">Loss</text>
  <text x="215" y="210" font-family="Arial" font-size="12" fill="#a0a9c0" text-anchor="middle">F1 Score</text>
  <text x="285" y="210" font-family="Arial" font-size="12" fill="#a0a9c0" text-anchor="middle">AUC</text>
  
  <!-- Accuracy Chart -->
  <rect x="40" y="230" width="280" height="200" rx="5" ry="5" fill="#141a29" />
  
  <!-- Chart Axes -->
  <line x1="60" y1="410" x2="300" y2="410" stroke="#2a3146" stroke-width="1" />
  <line x1="60" y1="250" x2="60" y2="410" stroke="#2a3146" stroke-width="1" />
  
  <!-- X-Axis Labels -->
  <text x="60" y="425" font-family="Arial" font-size="10" fill="#a0a9c0" text-anchor="middle">0</text>
  <text x="120" y="425" font-family="Arial" font-size="10" fill="#a0a9c0" text-anchor="middle">20</text>
  <text x="180" y="425" font-family="Arial" font-size="10" fill="#a0a9c0" text-anchor="middle">40</text>
  <text x="240" y="425" font-family="Arial" font-size="10" fill="#a0a9c0" text-anchor="middle">60</text>
  <text x="300" y="425" font-family="Arial" font-size="10" fill="#a0a9c0" text-anchor="middle">80</text>
  <text x="180" y="440" font-family="Arial" font-size="10" fill="#a0a9c0" text-anchor="middle">Epochs</text>
  
  <!-- Y-Axis Labels -->
  <text x="50" y="410" font-family="Arial" font-size="10" fill="#a0a9c0" text-anchor="end">0.7</text>
  <text x="50" y="370" font-family="Arial" font-size="10" fill="#a0a9c0" text-anchor="end">0.8</text>
  <text x="50" y="330" font-family="Arial" font-size="10" fill="#a0a9c0" text-anchor="end">0.9</text>
  <text x="50" y="290" font-family="Arial" font-size="10" fill="#a0a9c0" text-anchor="end">1.0</text>
  <text x="30" y="330" font-family="Arial" font-size="10" fill="#a0a9c0" text-anchor="middle" transform="rotate(-90,30,330)">Accuracy</text>
  
  <!-- Grid Lines -->
  <line x1="60" y1="370" x2="300" y2="370" stroke="#2a3146" stroke-width="0.5" stroke-dasharray="5,5" />
  <line x1="60" y1="330" x2="300" y2="330" stroke="#2a3146" stroke-width="0.5" stroke-dasharray="5,5" />
  <line x1="60" y1="290" x2="300" y2="290" stroke="#2a3146" stroke-width="0.5" stroke-dasharray="5,5" />
  <line x1="120" y1="250" x2="120" y2="410" stroke="#2a3146" stroke-width="0.5" stroke-dasharray="5,5" />
  <line x1="180" y1="250" x2="180" y2="410" stroke="#2a3146" stroke-width="0.5" stroke-dasharray="5,5" />
  <line x1="240" y1="250" x2="240" y2="410" stroke="#2a3146" stroke-width="0.5" stroke-dasharray="5,5" />
  
  <!-- Training Accuracy Line -->
  <polyline points="60,390 90,380 120,365 150,350 180,335 210,320 240,310 270,300 300,295" fill="none" stroke="#00c8ff" stroke-width="2" />
  <path d="M60,390 L90,380 L120,365 L150,350 L180,335 L210,320 L240,310 L270,300 L300,295 L300,410 L60,410 Z" fill="url(#chartGrad)" />
  
  <!-- Validation Accuracy Line -->
  <polyline points="60,395 90,385 120,375 150,360 180,350 210,340 240,330 270,325 300,320" fill="none" stroke="#9d4edd" stroke-width="2" stroke-dasharray="5,3" />
  
  <!-- Legend -->
  <rect x="70" y="250" width="10" height="10" fill="#00c8ff" />
  <text x="85" y="260" font-family="Arial" font-size="10" fill="#ffffff">Training</text>
  <rect x="150" y="250" width="10" height="10" fill="none" stroke="#9d4edd" stroke-width="2" stroke-dasharray="5,3" />
  <text x="165" y="260" font-family="Arial" font-size="10" fill="#ffffff">Validation</text>
  
  <!-- Current Metrics -->
  <text x="40" y="470" font-family="Arial" font-size="12" fill="#ffffff">Current Accuracy:</text>
  <text x="160" y="470" font-family="Arial" font-size="14" fill="#00c8ff">0.942</text>
  <text x="220" y="470" font-family="Arial" font-size="12" fill="#ffffff">Validation:</text>
  <text x="300" y="470" font-family="Arial" font-size="14" fill="#9d4edd">0.918</text>
  
  <!-- Confusion Matrix -->
  <rect x="350" y="150" width="330" height="200" rx="5" ry="5" fill="#0a0e17" filter="url(#dashShadow)" />
  <text x="370" y="175" font-family="Arial" font-size="14" fill="#ffffff">Confusion Matrix</text>
  
  <!-- Matrix Grid -->
  <rect x="400" y="190" width="230" height="140" rx="5" ry="5" fill="#141a29" />
  
  <!-- Matrix Headers -->
  <text x="515" y="185" font-family="Arial" font-size="12" fill="#ffffff" text-anchor="middle">Predicted</text>
  <text x="390" y="260" font-family="Arial" font-size="12" fill="#ffffff" text-anchor="middle" transform="rotate(-90,390,260)">Actual</text>
  
  <!-- Matrix Labels -->
  <text x="450" y="210" font-family="Arial" font-size="10" fill="#ffffff" text-anchor="middle">Class 0</text>
  <text x="580" y="210" font-family="Arial" font-size="10" fill="#ffffff" text-anchor="middle">Class 1</text>
  <text x="380" y="240" font-family="Arial" font-size="10" fill="#ffffff" text-anchor="end">Class 0</text>
  <text x="380" y="300" font-family="Arial" font-size="10" fill="#ffffff" text-anchor="end">Class 1</text>
  
  <!-- Matrix Cells -->
  <rect x="400" y="220" width="100" height="40" fill="#00c8ff" opacity="0.7" />
  <rect x="500" y="220" width="100" height="40" fill="#141a29" stroke="#2a3146" stroke-width="1" />
  <rect x="400" y="260" width="100" height="40" fill="#141a29" stroke="#2a3146" stroke-width="1" />
  <rect x="500" y="260" width="100" height="40" fill="#9d4edd" opacity="0.7" />
  
  <!-- Matrix Values -->
  <text x="450" y="245" font-family="Arial" font-size="14" fill="#ffffff" text-anchor="middle">156</text>
  <text x="580" y="245" font-family="Arial" font-size="14" fill="#ffffff" text-anchor="middle">8</text>
  <text x="450" y="285" font-family="Arial" font-size="14" fill="#ffffff" text-anchor="middle">12</text>
  <text x="580" y="285" font-family="Arial" font-size="14" fill="#ffffff" text-anchor="middle">142</text>
  
  <!-- Hover Effect on Cell -->
  <rect x="500" y="260" width="100" height="40" fill="url(#progressGrad)" opacity="0.2">
    <animate attributeName="opacity" values="0.2;0.4;0.2" dur="2s" repeatCount="indefinite" />
  </rect>
  
  <!-- Feature Importance -->
  <rect x="350" y="360" width="330" height="120" rx="5" ry="5" fill="#0a0e17" filter="url(#dashShadow)" />
  <text x="370" y="385" font-family="Arial" font-size="14" fill="#ffffff">Feature Importance</text>
  
  <!-- Feature Bars -->
  <!-- Feature 1 -->
  <text x="370" y="410" font-family="Arial" font-size="10" fill="#ffffff">Feature 3</text>
  <rect x="440" y="400" width="200" height="15" rx="7.5" ry="7.5" fill="#141a29" />
  <rect x="440" y="400" width="180" height="15" rx="7.5" ry="7.5" fill="url(#progressGrad)" />
  <text x="630" y="410" font-family="Arial" font-size="10" fill="#ffffff" text-anchor="end">0.90</text>
  
  <!-- Feature 2 -->
  <text x="370" y="430" font-family="Arial" font-size="10" fill="#ffffff">Feature 1</text>
  <rect x="440" y="420" width="200" height="15" rx="7.5" ry="7.5" fill="#141a29" />
  <rect x="440" y="420" width="140" height="15" rx="7.5" ry="7.5" fill="url(#progressGrad)" />
  <text x="630" y="430" font-family="Arial" font-size="10" fill="#ffffff" text-anchor="end">0.70</text>
  
  <!-- Feature 3 -->
  <text x="370" y="450" font-family="Arial" font-size="10" fill="#ffffff">Feature 5</text>
  <rect x="440" y="440" width="200" height="15" rx="7.5" ry="7.5" fill="#141a29" />
  <rect x="440" y="440" width="120" height="15" rx="7.5" ry="7.5" fill="url(#progressGrad)" />
  <text x="630" y="450" font-family="Arial" font-size="10" fill="#ffffff" text-anchor="end">0.60</text>
  
  <!-- Feature 4 -->
  <text x="370" y="470" font-family="Arial" font-size="10" fill="#ffffff">Feature 2</text>
  <rect x="440" y="460" width="200" height="15" rx="7.5" ry="7.5" fill="#141a29" />
  <rect x="440" y="460" width="100" height="15" rx="7.5" ry="7.5" fill="url(#progressGrad)" />
  <text x="630" y="470" font-family="Arial" font-size="10" fill="#ffffff" text-anchor="end">0.50</text>
  
  <!-- Animated Pulse on Progress Bar -->
  <rect x="40" y="100" width="372" height="20" rx="10" ry="10" fill="url(#progressGrad)" opacity="0.3">
    <animate attributeName="opacity" values="0.3;0.6;0.3" dur="1.5s" repeatCount="indefinite" />
  </rect>
</svg>